<svg xmlns="http://www.w3.org/2000/svg" viewBox="0 0 1600 1170" width="1600" height="1170" class="tt-map" data-map="s3-barracks"><defs><pattern id="ms3barracks-f-metal" width="100" height="100" patternUnits="userSpaceOnUse"><rect width="100" height="100" fill="#f3f4f6"/><path d="M0 0H100M0 50H100M50 0V50M0 50V100M75 50V100M25 50V100" stroke="#dfe2e6" stroke-width="2" fill="none"/><circle cx="6" cy="6" r="2" fill="#dfe2e6"/><circle cx="56" cy="56" r="2" fill="#dfe2e6"/></pattern><pattern id="ms3barracks-f-bone" width="80" height="80" patternUnits="userSpaceOnUse"><rect width="80" height="80" fill="#f6f1e8"/><path d="M0 20q20-10 40 0t40 0M0 60q20 10 40 0t40 0M10 40q10-6 20 0" stroke="#e5dccd" stroke-width="2" fill="none"/></pattern><pattern id="ms3barracks-f-tile" width="25" height="25" patternUnits="userSpaceOnUse"><rect width="25" height="25" fill="#f6f6f6"/><path d="M0 0H25M0 0V25" stroke="#e2e2e2" stroke-width="1.5"/></pattern><pattern id="ms3barracks-f-stone" width="40" height="40" patternUnits="userSpaceOnUse"><rect width="40" height="40" fill="#f1f1f1"/><path d="M0 0H40M0 0V40" stroke="#dcdcdc" stroke-width="1"/></pattern><pattern id="ms3barracks-f-wood" width="50" height="50" patternUnits="userSpaceOnUse"><rect width="50" height="50" fill="#f7f1e8"/><path d="M0 0H50M0 12.5H50M0 25H50M0 37.5H50M20 0V12.5M40 12.5V25M10 25V37.5M30 37.5V50" stroke="#e4d8c6" stroke-width="1.4"/></pattern><pattern id="ms3barracks-f-carpet" width="40" height="40" patternUnits="userSpaceOnUse"><rect width="40" height="40" fill="#f5eef3"/><path d="M0 0H40M0 0V40" stroke="#e3d4de" stroke-width="1"/></pattern><pattern id="ms3barracks-f-street" width="100" height="100" patternUnits="userSpaceOnUse"><rect width="100" height="100" fill="#fbfbfb"/><path d="M0 0H100M0 0V100M50 0V100M0 50H100" stroke="#e9e9e9" stroke-width="1.2"/></pattern><pattern id="ms3barracks-f-water" width="60" height="60" patternUnits="userSpaceOnUse"><rect width="60" height="60" fill="#e3f1f7"/><path d="M0 18q7.5-7 15 0t15 0t15 0t15 0M0 48q7.5-7 15 0t15 0t15 0t15 0" stroke="#b9d9e6" stroke-width="2" fill="none"/></pattern><pattern id="ms3barracks-f-ichor" width="60" height="60" patternUnits="userSpaceOnUse"><rect width="60" height="60" fill="#fbf1d2"/><path d="M0 18q7.5-7 15 0t15 0t15 0t15 0M0 48q7.5-7 15 0t15 0t15 0t15 0" stroke="#e2cf92" stroke-width="2.5" fill="none"/></pattern><pattern id="ms3barracks-f-drop" width="16" height="16" patternUnits="userSpaceOnUse"><rect width="16" height="16" fill="#ffffff"/><path d="M-4 4L4 -4M0 16L16 0M12 20L20 12" stroke="#8a8a8a" stroke-width="1.6"/></pattern><pattern id="ms3barracks-f-grate" width="12" height="12" patternUnits="userSpaceOnUse"><rect width="12" height="12" fill="#f4f4f4"/><path d="M0 6H12M6 0V12" stroke="#bdbdbd" stroke-width="2"/></pattern><pattern id="ms3barracks-f-dirt" width="40" height="40" patternUnits="userSpaceOnUse"><rect width="40" height="40" fill="#f5f1ea"/><path d="M0 0H40M0 0V40" stroke="#ddd3c3" stroke-width="1"/></pattern><pattern id="ms3barracks-f-glass" width="40" height="40" patternUnits="userSpaceOnUse"><rect width="40" height="40" fill="#eef6f9"/><path d="M0 0H40M0 0V40" stroke="#cfe3ea" stroke-width="1"/></pattern><pattern id="ms3barracks-f-flesh" width="80" height="80" patternUnits="userSpaceOnUse"><rect width="80" height="80" fill="#f8ebee"/><path d="M0 20q20-10 40 0t40 0M0 60q20 10 40 0t40 0M10 40q10-6 20 0" stroke="#e2c4cb" stroke-width="2" fill="none"/></pattern><pattern id="ms3barracks-f-void" width="16" height="16" patternUnits="userSpaceOnUse"><rect width="16" height="16" fill="#ffffff"/><path d="M-4 4L4 -4M0 16L16 0M12 20L20 12" stroke="#e4e4e4" stroke-width="1"/></pattern><pattern id="ms3barracks-f-garden" width="30" height="30" patternUnits="userSpaceOnUse"><rect width="30" height="30" fill="#eef4ee"/><path d="M5 10l3-5 3 5M18 24l3-5 3 5" stroke="#d3e2d3" stroke-width="1.5" fill="none"/></pattern><pattern id="ms3barracks-f-neon" width="40" height="40" patternUnits="userSpaceOnUse"><rect width="40" height="40" fill="#f3eef6"/><path d="M0 0H40M0 0V40" stroke="#ddd0e5" stroke-width="1"/></pattern><marker id="ms3barracks-arrow" viewBox="0 0 10 10" refX="8" refY="5" markerWidth="5" markerHeight="5" orient="auto-start-reverse"><path d="M0 0L10 5L0 10Z" fill="#333333"/></marker></defs><rect width="1600" height="1100" fill="url(#ms3barracks-f-bone)"/><polygon points="50,50 500,50 500,500 50,500" fill="url(#ms3barracks-f-metal)" data-area="shafthead"/><polygon points="500,50 1100,50 1100,500 500,500" fill="url(#ms3barracks-f-wood)" data-area="mess"/><polygon points="1100,50 1550,50 1550,650 1100,650" fill="url(#ms3barracks-f-wood)" data-area="bunks"/><polygon points="50,500 500,500 500,1050 50,1050" fill="url(#ms3barracks-f-tile)" data-area="infirmary"/><polygon points="500,500 1100,500 1100,650 500,650" fill="url(#ms3barracks-f-metal)" data-area="corridor"/><polygon points="500,650 900,650 900,1050 500,1050" fill="url(#ms3barracks-f-tile)" data-area="wash"/><polygon points="900,650 1200,650 1200,1050 900,1050" fill="url(#ms3barracks-f-carpet)" data-area="foreman"/><polygon points="1200,650 1550,650 1550,1050 1200,1050" fill="url(#ms3barracks-f-metal)" data-area="tools"/><path d="M50 0V1100M100 0V1100M150 0V1100M200 0V1100M250 0V1100M300 0V1100M350 0V1100M400 0V1100M450 0V1100M500 0V1100M550 0V1100M600 0V1100M650 0V1100M700 0V1100M750 0V1100M800 0V1100M850 0V1100M900 0V1100M950 0V1100M1000 0V1100M1050 0V1100M1100 0V1100M1150 0V1100M1200 0V1100M1250 0V1100M1300 0V1100M1350 0V1100M1400 0V1100M1450 0V1100M1500 0V1100M1550 0V1100M0 50H1600M0 100H1600M0 150H1600M0 200H1600M0 250H1600M0 300H1600M0 350H1600M0 400H1600M0 450H1600M0 500H1600M0 550H1600M0 600H1600M0 650H1600M0 700H1600M0 750H1600M0 800H1600M0 850H1600M0 900H1600M0 950H1600M0 1000H1600M0 1050H1600" stroke="rgba(0,0,0,0.2)" stroke-width="1" fill="none"/><rect x="103" y="103" width="194" height="194" fill="#ffffff" stroke="#333333" stroke-width="3"/><rect x="110" y="110" width="180" height="180" fill="none" stroke="#333333" stroke-width="1.5"/><path d="M135.3 103v194M167.7 103v194M200 103v194M232.3 103v194M264.7 103v194" stroke="#333333" stroke-width="1.5"/><text x="200" y="204" text-anchor="middle" font-size="12" fill="#444444" font-family="Barlow, Arial, sans-serif">CAGE</text><rect x="353" y="103" width="94" height="294" fill="#f3ece2" stroke="#555555" stroke-width="2"/><path d="M353 127.5h94M353 152h94M353 176.5h94M353 201h94M353 225.5h94M353 250h94M353 274.5h94M353 299h94M353 323.5h94M353 348h94M353 372.5h94" stroke="#555555" stroke-width="1.5"/><rect x="103" y="353" width="194" height="44" fill="#f3ece2" stroke="#555555" stroke-width="2"/><path d="M127.3 353v44M151.5 353v44M175.8 353v44M200 353v44M224.3 353v44M248.5 353v44M272.8 353v44" stroke="#555555" stroke-width="1.5"/><rect x="555" y="155" width="490" height="40" fill="#f3ece2" stroke="#555555" stroke-width="2"/><rect x="555" y="305" width="490" height="40" fill="#f3ece2" stroke="#555555" stroke-width="2"/><rect x="555" y="105" width="490" height="40" fill="#f3ece2" stroke="#555555" stroke-width="2"/><rect x="555" y="205" width="490" height="40" fill="#f3ece2" stroke="#555555" stroke-width="2"/><rect x="555" y="255" width="490" height="40" fill="#f3ece2" stroke="#555555" stroke-width="2"/><rect x="555" y="355" width="490" height="40" fill="#f3ece2" stroke="#555555" stroke-width="2"/><rect x="953" y="403" width="94" height="94" fill="#ffffff" stroke="#333333" stroke-width="2"/><rect x="960" y="410" width="35" height="80" fill="none" stroke="#333333" stroke-width="2"/><circle cx="1022" cy="450" r="18" fill="none" stroke="#333333" stroke-width="2"/><rect x="1155" y="105" width="90" height="140" fill="#f3ece2" stroke="#555555" stroke-width="2"/><rect x="1158" y="108" width="45" height="134" fill="#ffffff" stroke="#333333" stroke-width="2"/><rect x="1305" y="105" width="90" height="140" fill="#f3ece2" stroke="#555555" stroke-width="2"/><rect x="1308" y="108" width="45" height="134" fill="#ffffff" stroke="#333333" stroke-width="2"/><rect x="1455" y="105" width="90" height="140" fill="#f3ece2" stroke="#555555" stroke-width="2"/><rect x="1458" y="108" width="45" height="134" fill="#ffffff" stroke="#333333" stroke-width="2"/><rect x="1155" y="305" width="90" height="140" fill="#f3ece2" stroke="#555555" stroke-width="2"/><rect x="1158" y="308" width="45" height="134" fill="#ffffff" stroke="#333333" stroke-width="2"/><rect x="1305" y="305" width="90" height="140" fill="#f3ece2" stroke="#555555" stroke-width="2"/><rect x="1308" y="308" width="45" height="134" fill="#ffffff" stroke="#333333" stroke-width="2"/><rect x="1455" y="305" width="90" height="140" fill="#f3ece2" stroke="#555555" stroke-width="2"/><rect x="1458" y="308" width="45" height="134" fill="#ffffff" stroke="#333333" stroke-width="2"/><rect x="1155" y="505" width="90" height="140" fill="#f3ece2" stroke="#555555" stroke-width="2"/><rect x="1158" y="508" width="45" height="134" fill="#ffffff" stroke="#333333" stroke-width="2"/><rect x="1455" y="505" width="90" height="140" fill="#f3ece2" stroke="#555555" stroke-width="2"/><rect x="1458" y="508" width="45" height="134" fill="#ffffff" stroke="#333333" stroke-width="2"/><rect x="105" y="555" width="90" height="140" fill="#f3ece2" stroke="#555555" stroke-width="2"/><rect x="108" y="558" width="45" height="134" fill="#ffffff" stroke="#333333" stroke-width="2"/><rect x="255" y="555" width="90" height="140" fill="#f3ece2" stroke="#555555" stroke-width="2"/><rect x="258" y="558" width="45" height="134" fill="#ffffff" stroke="#333333" stroke-width="2"/><rect x="105" y="755" width="90" height="140" fill="#f3ece2" stroke="#555555" stroke-width="2"/><rect x="108" y="758" width="45" height="134" fill="#ffffff" stroke="#333333" stroke-width="2"/><rect x="255" y="755" width="90" height="140" fill="#f3ece2" stroke="#555555" stroke-width="2"/><rect x="258" y="758" width="45" height="134" fill="#ffffff" stroke="#333333" stroke-width="2"/><rect x="353" y="903" width="94" height="94" fill="#ffffff" stroke="#333333" stroke-width="2"/><rect x="360" y="910" width="35" height="80" fill="none" stroke="#333333" stroke-width="2"/><circle cx="422" cy="950" r="18" fill="none" stroke="#333333" stroke-width="2"/><circle cx="625" cy="775" r="71" fill="#ffffff" stroke="#333333" stroke-width="2"/><circle cx="625" cy="775" r="46.2" fill="#b9d9e6" stroke="none"/><circle cx="775" cy="775" r="71" fill="#ffffff" stroke="#333333" stroke-width="2"/><circle cx="775" cy="775" r="46.2" fill="#b9d9e6" stroke="none"/><rect x="608" y="908" width="84" height="84" fill="#ffffff" stroke="#333333" stroke-width="2"/><path d="M608 950H692" stroke="#333333" stroke-width="2"/><rect x="955" y="705" width="140" height="40" fill="#f3ece2" stroke="#555555" stroke-width="2"/><rect x="1105" y="855" width="90" height="140" fill="#f3ece2" stroke="#555555" stroke-width="2"/><rect x="1108" y="858" width="45" height="134" fill="#ffffff" stroke="#333333" stroke-width="2"/><rect x="1253" y="703" width="244" height="44" fill="#f3ece2" stroke="#555555" stroke-width="2"/><path d="M1277.4 703v44M1301.8 703v44M1326.2 703v44M1350.6 703v44M1375 703v44M1399.4 703v44M1423.8 703v44M1448.2 703v44M1472.6 703v44" stroke="#555555" stroke-width="1.5"/><rect x="1254" y="854" width="42" height="42" fill="#ffffff" stroke="#333333" stroke-width="2"/><path d="M1254 854L1296 896M1296 854L1254 896" stroke="#333333" stroke-width="2"/><rect x="1354" y="854" width="42" height="42" fill="#ffffff" stroke="#333333" stroke-width="2"/><path d="M1354 854L1396 896M1396 854L1354 896" stroke="#333333" stroke-width="2"/><rect x="1454" y="904" width="42" height="42" fill="#ffffff" stroke="#333333" stroke-width="2"/><path d="M1454 904L1496 946M1496 904L1454 946" stroke="#333333" stroke-width="2"/><circle cx="825" cy="575" r="9" fill="#777777"/><polygon points="50,50 500,50 500,500 50,500" fill="none" stroke="#111111" stroke-width="7" stroke-linejoin="round" stroke-linecap="round"/><polygon points="500,50 1100,50 1100,500 500,500" fill="none" stroke="#111111" stroke-width="7" stroke-linejoin="round" stroke-linecap="round"/><polygon points="1100,50 1550,50 1550,650 1100,650" fill="none" stroke="#111111" stroke-width="7" stroke-linejoin="round" stroke-linecap="round"/><polygon points="50,500 500,500 500,1050 50,1050" fill="none" stroke="#111111" stroke-width="7" stroke-linejoin="round" stroke-linecap="round"/><polygon points="500,500 1100,500 1100,650 500,650" fill="none" stroke="#111111" stroke-width="7" stroke-linejoin="round" stroke-linecap="round"/><polygon points="500,650 900,650 900,1050 500,1050" fill="none" stroke="#111111" stroke-width="7" stroke-linejoin="round" stroke-linecap="round"/><polygon points="900,650 1200,650 1200,1050 900,1050" fill="none" stroke="#111111" stroke-width="7" stroke-linejoin="round" stroke-linecap="round"/><polygon points="1200,650 1550,650 1550,1050 1200,1050" fill="none" stroke="#111111" stroke-width="7" stroke-linejoin="round" stroke-linecap="round"/><rect x="493.5" y="200" width="13" height="100" fill="url(#ms3barracks-f-metal)"/><rect x="495" y="206" width="10" height="88" fill="#ffffff" stroke="#ffffff" stroke-width="2.5"/><rect x="1093.5" y="250" width="13" height="100" fill="url(#ms3barracks-f-wood)"/><rect x="1095" y="256" width="10" height="88" fill="#ffffff" stroke="#ffffff" stroke-width="2.5"/><rect x="250" y="493.5" width="50" height="13" fill="url(#ms3barracks-f-metal)"/><rect x="256" y="495" width="38" height="10" fill="#ffffff" stroke="#ffffff" stroke-width="2.5"/><rect x="493.5" y="550" width="13" height="50" fill="url(#ms3barracks-f-tile)"/><rect x="495" y="556" width="10" height="38" fill="#ffffff" stroke="#ffffff" stroke-width="2.5"/><rect x="1093.5" y="550" width="13" height="50" fill="url(#ms3barracks-f-wood)"/><rect x="1095" y="556" width="10" height="38" fill="#ffffff" stroke="#ffffff" stroke-width="2.5"/><rect x="700" y="643.5" width="50" height="13" fill="url(#ms3barracks-f-metal)"/><rect x="706" y="645" width="38" height="10" fill="#ffffff" stroke="#ffffff" stroke-width="2.5"/><rect x="1000" y="643.5" width="50" height="13" fill="url(#ms3barracks-f-metal)"/><rect x="1006" y="645" width="38" height="10" fill="#ffffff" stroke="#ffffff" stroke-width="2.5"/><rect x="1300" y="643.5" width="50" height="13" fill="url(#ms3barracks-f-wood)"/><rect x="1306" y="645" width="38" height="10" fill="#ffffff" stroke="#ffffff" stroke-width="2.5"/><rect x="250" y="1043.5" width="50" height="13" fill="url(#ms3barracks-f-tile)"/><rect x="256" y="1045" width="38" height="10" fill="#ffffff" stroke="#ffffff" stroke-width="2.5"/><text x="275" y="309" text-anchor="middle" font-size="15" letter-spacing="1.5" fill="#444444" font-family="Barlow, Arial, sans-serif" style="text-transform:uppercase">SHAFT-HEAD</text><text x="800" y="309" text-anchor="middle" font-size="15" letter-spacing="1.5" fill="#444444" font-family="Barlow, Arial, sans-serif" style="text-transform:uppercase">MESS HALL</text><text x="1325" y="384" text-anchor="middle" font-size="15" letter-spacing="1.5" fill="#444444" font-family="Barlow, Arial, sans-serif" style="text-transform:uppercase">BUNK ROOM</text><text x="275" y="809" text-anchor="middle" font-size="15" letter-spacing="1.5" fill="#444444" font-family="Barlow, Arial, sans-serif" style="text-transform:uppercase">INFIRMARY</text><text x="800" y="609" text-anchor="middle" font-size="15" letter-spacing="1.5" fill="#444444" font-family="Barlow, Arial, sans-serif" style="text-transform:uppercase">CORRIDOR</text><text x="700" y="884" text-anchor="middle" font-size="15" letter-spacing="1.5" fill="#444444" font-family="Barlow, Arial, sans-serif" style="text-transform:uppercase">WASH HOUSE</text><text x="1050" y="884" text-anchor="middle" font-size="15" letter-spacing="1.5" fill="#444444" font-family="Barlow, Arial, sans-serif" style="text-transform:uppercase">COBB&#39;S ROOM</text><text x="1375" y="884" text-anchor="middle" font-size="15" letter-spacing="1.5" fill="#444444" font-family="Barlow, Arial, sans-serif" style="text-transform:uppercase">TOOL STORE</text><g><circle cx="750" cy="550" r="11" fill="none" stroke="#333333" stroke-width="3"/><text x="750" y="534" text-anchor="middle" font-size="12" font-weight="700" fill="#333333" font-family="Barlow, Arial, sans-serif">Party</text></g><g><circle cx="200" cy="650" r="11" fill="none" stroke="#333333" stroke-width="3"/><text x="200" y="634" text-anchor="middle" font-size="12" font-weight="700" fill="#333333" font-family="Barlow, Arial, sans-serif">Sick crew</text></g><g class="key" data-key="shafthead"><circle cx="275" cy="271" r="16" fill="#ffffff" stroke="#111111" stroke-width="2"/><text x="275" y="277" text-anchor="middle" font-size="17" font-weight="700" fill="#111111" font-family="Barlow, Arial, sans-serif">A</text></g><g class="key" data-key="mess"><circle cx="800" cy="271" r="16" fill="#ffffff" stroke="#111111" stroke-width="2"/><text x="800" y="277" text-anchor="middle" font-size="17" font-weight="700" fill="#111111" font-family="Barlow, Arial, sans-serif">B</text></g><g class="key" data-key="bunks"><circle cx="1325" cy="346" r="16" fill="#ffffff" stroke="#111111" stroke-width="2"/><text x="1325" y="352" text-anchor="middle" font-size="17" font-weight="700" fill="#111111" font-family="Barlow, Arial, sans-serif">C</text></g><g class="key" data-key="infirmary"><circle cx="275" cy="771" r="16" fill="#ffffff" stroke="#111111" stroke-width="2"/><text x="275" y="777" text-anchor="middle" font-size="17" font-weight="700" fill="#111111" font-family="Barlow, Arial, sans-serif">D</text></g><g class="key" data-key="corridor"><circle cx="800" cy="571" r="16" fill="#ffffff" stroke="#111111" stroke-width="2"/><text x="800" y="577" text-anchor="middle" font-size="17" font-weight="700" fill="#111111" font-family="Barlow, Arial, sans-serif">E</text></g><g class="key" data-key="wash"><circle cx="700" cy="846" r="16" fill="#ffffff" stroke="#111111" stroke-width="2"/><text x="700" y="852" text-anchor="middle" font-size="17" font-weight="700" fill="#111111" font-family="Barlow, Arial, sans-serif">F</text></g><g class="key" data-key="foreman"><circle cx="1050" cy="846" r="16" fill="#ffffff" stroke="#111111" stroke-width="2"/><text x="1050" y="852" text-anchor="middle" font-size="17" font-weight="700" fill="#111111" font-family="Barlow, Arial, sans-serif">G</text></g><g class="key" data-key="tools"><circle cx="1375" cy="846" r="16" fill="#ffffff" stroke="#111111" stroke-width="2"/><text x="1375" y="852" text-anchor="middle" font-size="17" font-weight="700" fill="#111111" font-family="Barlow, Arial, sans-serif">H</text></g><rect y="1100" width="1600" height="70" fill="#ffffff"/><text x="20" y="1130" font-size="22" font-weight="700" fill="#111111" font-family="Barlow, Arial, sans-serif">Drillers&#39; barracks</text><text x="20" y="1155" font-size="14" fill="#444444" font-family="Barlow, Arial, sans-serif">The Marrowworks · shaft nine&#39;s crew quarters · 160 by 110 ft · one square is 5 ft</text><path d="M1380 1140h200" stroke="#111111" stroke-width="3"/><path d="M1380 1134v12M1580 1134v12M1480 1136v8" stroke="#111111" stroke-width="2"/><text x="1480" y="1162" text-anchor="middle" font-size="13" fill="#444444" font-family="Barlow, Arial, sans-serif">20 ft</text></svg>
