<svg xmlns="http://www.w3.org/2000/svg" viewBox="0 0 2000 1570" width="2000" height="1570" class="tt-map" data-map="s9-eye"><defs><pattern id="ms9eye-f-metal" width="100" height="100" patternUnits="userSpaceOnUse"><rect width="100" height="100" fill="#f3f4f6"/><path d="M0 0H100M0 50H100M50 0V50M0 50V100M75 50V100M25 50V100" stroke="#dfe2e6" stroke-width="2" fill="none"/><circle cx="6" cy="6" r="2" fill="#dfe2e6"/><circle cx="56" cy="56" r="2" fill="#dfe2e6"/></pattern><pattern id="ms9eye-f-bone" width="80" height="80" patternUnits="userSpaceOnUse"><rect width="80" height="80" fill="#f6f1e8"/><path d="M0 20q20-10 40 0t40 0M0 60q20 10 40 0t40 0M10 40q10-6 20 0" stroke="#e5dccd" stroke-width="2" fill="none"/></pattern><pattern id="ms9eye-f-tile" width="25" height="25" patternUnits="userSpaceOnUse"><rect width="25" height="25" fill="#f6f6f6"/><path d="M0 0H25M0 0V25" stroke="#e2e2e2" stroke-width="1.5"/></pattern><pattern id="ms9eye-f-stone" width="40" height="40" patternUnits="userSpaceOnUse"><rect width="40" height="40" fill="#f1f1f1"/><path d="M0 0H40M0 0V40" stroke="#dcdcdc" stroke-width="1"/></pattern><pattern id="ms9eye-f-wood" width="50" height="50" patternUnits="userSpaceOnUse"><rect width="50" height="50" fill="#f7f1e8"/><path d="M0 0H50M0 12.5H50M0 25H50M0 37.5H50M20 0V12.5M40 12.5V25M10 25V37.5M30 37.5V50" stroke="#e4d8c6" stroke-width="1.4"/></pattern><pattern id="ms9eye-f-carpet" width="40" height="40" patternUnits="userSpaceOnUse"><rect width="40" height="40" fill="#f5eef3"/><path d="M0 0H40M0 0V40" stroke="#e3d4de" stroke-width="1"/></pattern><pattern id="ms9eye-f-street" width="100" height="100" patternUnits="userSpaceOnUse"><rect width="100" height="100" fill="#fbfbfb"/><path d="M0 0H100M0 0V100M50 0V100M0 50H100" stroke="#e9e9e9" stroke-width="1.2"/></pattern><pattern id="ms9eye-f-water" width="60" height="60" patternUnits="userSpaceOnUse"><rect width="60" height="60" fill="#e3f1f7"/><path d="M0 18q7.5-7 15 0t15 0t15 0t15 0M0 48q7.5-7 15 0t15 0t15 0t15 0" stroke="#b9d9e6" stroke-width="2" fill="none"/></pattern><pattern id="ms9eye-f-ichor" width="60" height="60" patternUnits="userSpaceOnUse"><rect width="60" height="60" fill="#fbf1d2"/><path d="M0 18q7.5-7 15 0t15 0t15 0t15 0M0 48q7.5-7 15 0t15 0t15 0t15 0" stroke="#e2cf92" stroke-width="2.5" fill="none"/></pattern><pattern id="ms9eye-f-drop" width="16" height="16" patternUnits="userSpaceOnUse"><rect width="16" height="16" fill="#ffffff"/><path d="M-4 4L4 -4M0 16L16 0M12 20L20 12" stroke="#8a8a8a" stroke-width="1.6"/></pattern><pattern id="ms9eye-f-grate" width="12" height="12" patternUnits="userSpaceOnUse"><rect width="12" height="12" fill="#f4f4f4"/><path d="M0 6H12M6 0V12" stroke="#bdbdbd" stroke-width="2"/></pattern><pattern id="ms9eye-f-dirt" width="40" height="40" patternUnits="userSpaceOnUse"><rect width="40" height="40" fill="#f5f1ea"/><path d="M0 0H40M0 0V40" stroke="#ddd3c3" stroke-width="1"/></pattern><pattern id="ms9eye-f-glass" width="40" height="40" patternUnits="userSpaceOnUse"><rect width="40" height="40" fill="#eef6f9"/><path d="M0 0H40M0 0V40" stroke="#cfe3ea" stroke-width="1"/></pattern><pattern id="ms9eye-f-flesh" width="80" height="80" patternUnits="userSpaceOnUse"><rect width="80" height="80" fill="#f8ebee"/><path d="M0 20q20-10 40 0t40 0M0 60q20 10 40 0t40 0M10 40q10-6 20 0" stroke="#e2c4cb" stroke-width="2" fill="none"/></pattern><pattern id="ms9eye-f-void" width="16" height="16" patternUnits="userSpaceOnUse"><rect width="16" height="16" fill="#ffffff"/><path d="M-4 4L4 -4M0 16L16 0M12 20L20 12" stroke="#e4e4e4" stroke-width="1"/></pattern><pattern id="ms9eye-f-garden" width="30" height="30" patternUnits="userSpaceOnUse"><rect width="30" height="30" fill="#eef4ee"/><path d="M5 10l3-5 3 5M18 24l3-5 3 5" stroke="#d3e2d3" stroke-width="1.5" fill="none"/></pattern><pattern id="ms9eye-f-neon" width="40" height="40" patternUnits="userSpaceOnUse"><rect width="40" height="40" fill="#f3eef6"/><path d="M0 0H40M0 0V40" stroke="#ddd0e5" stroke-width="1"/></pattern><marker id="ms9eye-arrow" viewBox="0 0 10 10" refX="8" refY="5" markerWidth="5" markerHeight="5" orient="auto-start-reverse"><path d="M0 0L10 5L0 10Z" fill="#333333"/></marker></defs><rect width="2000" height="1500" fill="url(#ms9eye-f-void)"/><polygon points="400,50 1600,50 1600,550 400,550" fill="url(#ms9eye-f-glass)" data-area="eye"/><polygon points="100,150 400,150 400,550 100,550" fill="url(#ms9eye-f-grate)" data-area="gantry"/><polygon points="1600,150 1950,150 1950,550 1600,550" fill="url(#ms9eye-f-metal)" data-area="rig"/><polygon points="200,550 1800,550 1800,1100 200,1100" fill="url(#ms9eye-f-carpet)" data-area="gallery"/><polygon points="50,1100 650,1100 650,1450 50,1450" fill="url(#ms9eye-f-metal)" data-area="circuit"/><polygon points="700,1100 1300,1100 1300,1450 700,1450" fill="url(#ms9eye-f-wood)" data-area="dais"/><polygon points="1300,1100 1950,1100 1950,1450 1300,1450" fill="url(#ms9eye-f-stone)" data-area="entry"/><path d="M50 0V1500M100 0V1500M150 0V1500M200 0V1500M250 0V1500M300 0V1500M350 0V1500M400 0V1500M450 0V1500M500 0V1500M550 0V1500M600 0V1500M650 0V1500M700 0V1500M750 0V1500M800 0V1500M850 0V1500M900 0V1500M950 0V1500M1000 0V1500M1050 0V1500M1100 0V1500M1150 0V1500M1200 0V1500M1250 0V1500M1300 0V1500M1350 0V1500M1400 0V1500M1450 0V1500M1500 0V1500M1550 0V1500M1600 0V1500M1650 0V1500M1700 0V1500M1750 0V1500M1800 0V1500M1850 0V1500M1900 0V1500M1950 0V1500M0 50H2000M0 100H2000M0 150H2000M0 200H2000M0 250H2000M0 300H2000M0 350H2000M0 400H2000M0 450H2000M0 500H2000M0 550H2000M0 600H2000M0 650H2000M0 700H2000M0 750H2000M0 800H2000M0 850H2000M0 900H2000M0 950H2000M0 1000H2000M0 1050H2000M0 1100H2000M0 1150H2000M0 1200H2000M0 1250H2000M0 1300H2000M0 1350H2000M0 1400H2000M0 1450H2000" stroke="rgba(0,0,0,0.2)" stroke-width="1" fill="none"/><ellipse cx="1000" cy="275" rx="546" ry="221" fill="#eef6f9" stroke="#777777" stroke-width="5"/><circle cx="1000" cy="275" r="135" fill="#e2cf92" stroke="#777777" stroke-width="3"/><ellipse cx="1000" cy="275" rx="36" ry="108" fill="#ffffff"/><rect x="153" y="203" width="44" height="294" fill="none" stroke="#333333" stroke-width="2"/><path d="M153 214.8h44M153 226.5h44M153 238.3h44M153 250h44M153 261.8h44M153 273.6h44M153 285.3h44M153 297.1h44M153 308.8h44M153 320.6h44M153 332.4h44M153 344.1h44M153 355.9h44M153 367.6h44M153 379.4h44M153 391.2h44M153 402.9h44M153 414.7h44M153 426.4h44M153 438.2h44M153 450h44M153 461.7h44M153 473.5h44M153 485.2h44" stroke="#333333" stroke-width="2"/><path d="M175 208L175 492" stroke="#333333" stroke-width="2.5" marker-end="url(#ms9eye-arrow)"/><rect x="202" y="452" width="146" height="46" fill="#ffffff" stroke="#333333" stroke-width="2" stroke-dasharray="6 3"/><rect x="1653" y="203" width="244" height="144" fill="#ffffff" stroke="#333333" stroke-width="2"/><rect x="1660" y="210" width="87.5" height="130" fill="none" stroke="#333333" stroke-width="2"/><circle cx="1830" cy="275" r="27" fill="none" stroke="#333333" stroke-width="2"/><path d="M1650 300L1500 150" stroke="#777777" stroke-width="2.5" stroke-linecap="round"/><path d="M1650 400L1500 400" stroke="#777777" stroke-width="2.5" stroke-linecap="round"/><rect x="305" y="655" width="590" height="40" fill="#f3ece2" stroke="#555555" stroke-width="2"/><rect x="1105" y="655" width="590" height="40" fill="#f3ece2" stroke="#555555" stroke-width="2"/><rect x="305" y="805" width="590" height="40" fill="#f3ece2" stroke="#555555" stroke-width="2"/><rect x="1105" y="805" width="590" height="40" fill="#f3ece2" stroke="#555555" stroke-width="2"/><rect x="305" y="955" width="590" height="40" fill="#f3ece2" stroke="#555555" stroke-width="2"/><rect x="1105" y="955" width="590" height="40" fill="#f3ece2" stroke="#555555" stroke-width="2"/><rect x="104" y="1158" width="192" height="34" fill="#ffffff" stroke="#333333" stroke-width="2"/><path d="M109 1175H291" stroke="#333333" stroke-width="3"/><rect x="354" y="1158" width="192" height="34" fill="#ffffff" stroke="#333333" stroke-width="2"/><path d="M359 1175H541" stroke="#333333" stroke-width="3"/><rect x="104" y="1308" width="192" height="34" fill="#ffffff" stroke="#333333" stroke-width="2"/><path d="M109 1325H291" stroke="#333333" stroke-width="3"/><rect x="855" y="1205" width="290" height="40" fill="#f3ece2" stroke="#555555" stroke-width="2"/><rect x="954" y="1304" width="92" height="92" fill="#ffffff" stroke="#333333" stroke-width="2"/><path d="M954 1304L1046 1396M1046 1304L954 1396" stroke="#333333" stroke-width="2"/><text x="1000" y="1354" text-anchor="middle" font-size="12" fill="#444444" font-family="Barlow, Arial, sans-serif">41</text><rect x="1405" y="1205" width="140" height="40" fill="#f3ece2" stroke="#555555" stroke-width="2"/><circle cx="625" cy="1075" r="9" fill="#777777"/><circle cx="1425" cy="1075" r="9" fill="#777777"/><polygon points="1600,150 1950,150 1950,550 1600,550" fill="none" stroke="#111111" stroke-width="7" stroke-linejoin="round" stroke-linecap="round"/><polygon points="200,550 1800,550 1800,1100 200,1100" fill="none" stroke="#111111" stroke-width="7" stroke-linejoin="round" stroke-linecap="round"/><polygon points="50,1100 650,1100 650,1450 50,1450" fill="none" stroke="#111111" stroke-width="7" stroke-linejoin="round" stroke-linecap="round"/><polygon points="700,1100 1300,1100 1300,1450 700,1450" fill="none" stroke="#111111" stroke-width="7" stroke-linejoin="round" stroke-linecap="round"/><polygon points="1300,1100 1950,1100 1950,1450 1300,1450" fill="none" stroke="#111111" stroke-width="7" stroke-linejoin="round" stroke-linecap="round"/><rect x="400" y="1093.5" width="100" height="13" fill="url(#ms9eye-f-carpet)"/><rect x="950" y="1093.5" width="100" height="13" fill="url(#ms9eye-f-carpet)"/><rect x="1500" y="1093.5" width="150" height="13" fill="url(#ms9eye-f-carpet)"/><rect x="1793.5" y="1300" width="13" height="100" fill="url(#ms9eye-f-stone)"/><rect x="1795" y="1306" width="10" height="88" fill="#ffffff" stroke="#ffffff" stroke-width="2.5"/><text x="1000" y="334" text-anchor="middle" font-size="15" letter-spacing="1.5" fill="#444444" font-family="Barlow, Arial, sans-serif" style="text-transform:uppercase">THE EYE</text><text x="250" y="384" text-anchor="middle" font-size="15" letter-spacing="1.5" fill="#444444" font-family="Barlow, Arial, sans-serif" style="text-transform:uppercase">LID GANTRY</text><text x="1775" y="384" text-anchor="middle" font-size="15" letter-spacing="1.5" fill="#444444" font-family="Barlow, Arial, sans-serif" style="text-transform:uppercase">SHROUD RIG</text><text x="1000" y="859" text-anchor="middle" font-size="15" letter-spacing="1.5" fill="#444444" font-family="Barlow, Arial, sans-serif" style="text-transform:uppercase">VIEWING GALLERY</text><text x="350" y="1309" text-anchor="middle" font-size="15" letter-spacing="1.5" fill="#444444" font-family="Barlow, Arial, sans-serif" style="text-transform:uppercase">PRAYER-CIRCUIT</text><text x="1000" y="1309" text-anchor="middle" font-size="15" letter-spacing="1.5" fill="#444444" font-family="Barlow, Arial, sans-serif" style="text-transform:uppercase">AUCTION DAIS</text><text x="1625" y="1309" text-anchor="middle" font-size="15" letter-spacing="1.5" fill="#444444" font-family="Barlow, Arial, sans-serif" style="text-transform:uppercase">ENTRANCE AND GUARDS</text><g><circle cx="1600" cy="1350" r="11" fill="none" stroke="#333333" stroke-width="3"/><text x="1600" y="1334" text-anchor="middle" font-size="12" font-weight="700" fill="#333333" font-family="Barlow, Arial, sans-serif">Party</text></g><g><circle cx="1000" cy="600" r="11" fill="none" stroke="#333333" stroke-width="3"/><text x="1000" y="584" text-anchor="middle" font-size="12" font-weight="700" fill="#333333" font-family="Barlow, Arial, sans-serif">Sarrow</text></g><g class="key" data-key="eye"><circle cx="1000" cy="296" r="16" fill="#ffffff" stroke="#111111" stroke-width="2"/><text x="1000" y="302" text-anchor="middle" font-size="17" font-weight="700" fill="#111111" font-family="Barlow, Arial, sans-serif">A</text></g><g class="key" data-key="gantry"><circle cx="250" cy="346" r="16" fill="#ffffff" stroke="#111111" stroke-width="2"/><text x="250" y="352" text-anchor="middle" font-size="17" font-weight="700" fill="#111111" font-family="Barlow, Arial, sans-serif">B</text></g><g class="key" data-key="rig"><circle cx="1775" cy="346" r="16" fill="#ffffff" stroke="#111111" stroke-width="2"/><text x="1775" y="352" text-anchor="middle" font-size="17" font-weight="700" fill="#111111" font-family="Barlow, Arial, sans-serif">C</text></g><g class="key" data-key="gallery"><circle cx="1000" cy="821" r="16" fill="#ffffff" stroke="#111111" stroke-width="2"/><text x="1000" y="827" text-anchor="middle" font-size="17" font-weight="700" fill="#111111" font-family="Barlow, Arial, sans-serif">D</text></g><g class="key" data-key="circuit"><circle cx="350" cy="1271" r="16" fill="#ffffff" stroke="#111111" stroke-width="2"/><text x="350" y="1277" text-anchor="middle" font-size="17" font-weight="700" fill="#111111" font-family="Barlow, Arial, sans-serif">E</text></g><g class="key" data-key="dais"><circle cx="1000" cy="1271" r="16" fill="#ffffff" stroke="#111111" stroke-width="2"/><text x="1000" y="1277" text-anchor="middle" font-size="17" font-weight="700" fill="#111111" font-family="Barlow, Arial, sans-serif">F</text></g><g class="key" data-key="entry"><circle cx="1625" cy="1271" r="16" fill="#ffffff" stroke="#111111" stroke-width="2"/><text x="1625" y="1277" text-anchor="middle" font-size="17" font-weight="700" fill="#111111" font-family="Barlow, Arial, sans-serif">G</text></g><rect y="1500" width="2000" height="70" fill="#ffffff"/><text x="20" y="1530" font-size="22" font-weight="700" fill="#111111" font-family="Barlow, Arial, sans-serif">The Eye&#39;s viewing gallery</text><text x="20" y="1555" font-size="14" fill="#444444" font-family="Barlow, Arial, sans-serif">The Brow · House Reliquary · 200 by 150 ft · one square is 5 ft</text><path d="M1780 1540h200" stroke="#111111" stroke-width="3"/><path d="M1780 1534v12M1980 1534v12M1880 1536v8" stroke="#111111" stroke-width="2"/><text x="1880" y="1562" text-anchor="middle" font-size="13" fill="#444444" font-family="Barlow, Arial, sans-serif">20 ft</text></svg>
