<svg xmlns="http://www.w3.org/2000/svg" viewBox="0 0 1900 1300" width="1900" height="1300" class="tt-map" data-map="repo-warehouse"><defs><pattern id="mrepowarehouse-f-metal" width="100" height="100" patternUnits="userSpaceOnUse"><rect width="100" height="100" fill="#0f1724"/><path d="M0 0H100M0 50H100M50 0V50M0 50V100M75 50V100M25 50V100" stroke="#1a2536" stroke-width="2" fill="none"/><circle cx="6" cy="6" r="2" fill="#1a2536"/><circle cx="56" cy="56" r="2" fill="#1a2536"/></pattern><pattern id="mrepowarehouse-f-bone" width="80" height="80" patternUnits="userSpaceOnUse"><rect width="80" height="80" fill="#1b1712"/><path d="M0 20q20-10 40 0t40 0M0 60q20 10 40 0t40 0M10 40q10-6 20 0" stroke="#2a231a" stroke-width="2" fill="none"/></pattern><pattern id="mrepowarehouse-f-tile" width="25" height="25" patternUnits="userSpaceOnUse"><rect width="25" height="25" fill="#101a28"/><path d="M0 0H25M0 0V25" stroke="#1a2638" stroke-width="1.5"/></pattern><pattern id="mrepowarehouse-f-stone" width="40" height="40" patternUnits="userSpaceOnUse"><rect width="40" height="40" fill="#13161d"/><path d="M0 0H40M0 0V40" stroke="#1d222c" stroke-width="1"/></pattern><pattern id="mrepowarehouse-f-wood" width="50" height="50" patternUnits="userSpaceOnUse"><rect width="50" height="50" fill="#1c140e"/><path d="M0 0H50M0 12.5H50M0 25H50M0 37.5H50M20 0V12.5M40 12.5V25M10 25V37.5M30 37.5V50" stroke="#2a1f16" stroke-width="1.4"/></pattern><pattern id="mrepowarehouse-f-carpet" width="40" height="40" patternUnits="userSpaceOnUse"><rect width="40" height="40" fill="#1e0f1b"/><path d="M0 0H40M0 0V40" stroke="#2c1628" stroke-width="1"/></pattern><pattern id="mrepowarehouse-f-street" width="100" height="100" patternUnits="userSpaceOnUse"><rect width="100" height="100" fill="#0c1119"/><path d="M0 0H100M0 0V100M50 0V100M0 50H100" stroke="#151c27" stroke-width="1.2"/></pattern><pattern id="mrepowarehouse-f-water" width="60" height="60" patternUnits="userSpaceOnUse"><rect width="60" height="60" fill="#05232f"/><path d="M0 18q7.5-7 15 0t15 0t15 0t15 0M0 48q7.5-7 15 0t15 0t15 0t15 0" stroke="#0d4053" stroke-width="2" fill="none"/></pattern><pattern id="mrepowarehouse-f-ichor" width="60" height="60" patternUnits="userSpaceOnUse"><rect width="60" height="60" fill="#2a1f05"/><path d="M0 18q7.5-7 15 0t15 0t15 0t15 0M0 48q7.5-7 15 0t15 0t15 0t15 0" stroke="#6b4f0c" stroke-width="2.5" fill="none"/></pattern><pattern id="mrepowarehouse-f-drop" width="16" height="16" patternUnits="userSpaceOnUse"><rect width="16" height="16" fill="#000000"/><path d="M-4 4L4 -4M0 16L16 0M12 20L20 12" stroke="rgba(255,61,129,0.45)" stroke-width="1.6"/></pattern><pattern id="mrepowarehouse-f-grate" width="12" height="12" patternUnits="userSpaceOnUse"><rect width="12" height="12" fill="#0b131c"/><path d="M0 6H12M6 0V12" stroke="#1f2d3d" stroke-width="2"/></pattern><pattern id="mrepowarehouse-f-dirt" width="40" height="40" patternUnits="userSpaceOnUse"><rect width="40" height="40" fill="#16130e"/><path d="M0 0H40M0 0V40" stroke="#221d15" stroke-width="1"/></pattern><pattern id="mrepowarehouse-f-glass" width="40" height="40" patternUnits="userSpaceOnUse"><rect width="40" height="40" fill="#081a24"/><path d="M0 0H40M0 0V40" stroke="#16384a" stroke-width="1"/></pattern><pattern id="mrepowarehouse-f-flesh" width="80" height="80" patternUnits="userSpaceOnUse"><rect width="80" height="80" fill="#220c13"/><path d="M0 20q20-10 40 0t40 0M0 60q20 10 40 0t40 0M10 40q10-6 20 0" stroke="#3d1622" stroke-width="2" fill="none"/></pattern><pattern id="mrepowarehouse-f-void" width="16" height="16" patternUnits="userSpaceOnUse"><rect width="16" height="16" fill="#02040a"/><path d="M-4 4L4 -4M0 16L16 0M12 20L20 12" stroke="rgba(34,211,238,0.06)" stroke-width="1"/></pattern><pattern id="mrepowarehouse-f-garden" width="30" height="30" patternUnits="userSpaceOnUse"><rect width="30" height="30" fill="#0b1c18"/><path d="M5 10l3-5 3 5M18 24l3-5 3 5" stroke="#143128" stroke-width="1.5" fill="none"/></pattern><pattern id="mrepowarehouse-f-neon" width="40" height="40" patternUnits="userSpaceOnUse"><rect width="40" height="40" fill="#12091a"/><path d="M0 0H40M0 0V40" stroke="#2a1238" stroke-width="1"/></pattern><filter id="mrepowarehouse-glow" x="-20%" y="-20%" width="140%" height="140%"><feGaussianBlur stdDeviation="3" result="b"/><feMerge><feMergeNode in="b"/><feMergeNode in="SourceGraphic"/></feMerge></filter><marker id="mrepowarehouse-arrow" viewBox="0 0 10 10" refX="8" refY="5" markerWidth="5" markerHeight="5" orient="auto-start-reverse"><path d="M0 0L10 5L0 10Z" fill="#22d3ee"/></marker></defs><rect width="1900" height="1300" fill="url(#mrepowarehouse-f-metal)"/><polygon points="50,900 750,900 750,1250 50,1250" fill="url(#mrepowarehouse-f-metal)" data-area="dock"/><polygon points="50,50 1350,50 1350,900 50,900" fill="url(#mrepowarehouse-f-metal)" data-area="aisles"/><polygon points="1350,50 1850,50 1850,550 1350,550" fill="url(#mrepowarehouse-f-grate)" data-area="cages"/><polygon points="1350,550 1850,550 1850,900 1350,900" fill="url(#mrepowarehouse-f-carpet)" data-area="office"/><polygon points="750,900 1850,900 1850,1250 750,1250" fill="url(#mrepowarehouse-f-grate)" data-area="charging"/><path d="M50 0V1300M100 0V1300M150 0V1300M200 0V1300M250 0V1300M300 0V1300M350 0V1300M400 0V1300M450 0V1300M500 0V1300M550 0V1300M600 0V1300M650 0V1300M700 0V1300M750 0V1300M800 0V1300M850 0V1300M900 0V1300M950 0V1300M1000 0V1300M1050 0V1300M1100 0V1300M1150 0V1300M1200 0V1300M1250 0V1300M1300 0V1300M1350 0V1300M1400 0V1300M1450 0V1300M1500 0V1300M1550 0V1300M1600 0V1300M1650 0V1300M1700 0V1300M1750 0V1300M1800 0V1300M1850 0V1300M0 50H1900M0 100H1900M0 150H1900M0 200H1900M0 250H1900M0 300H1900M0 350H1900M0 400H1900M0 450H1900M0 500H1900M0 550H1900M0 600H1900M0 650H1900M0 700H1900M0 750H1900M0 800H1900M0 850H1900M0 900H1900M0 950H1900M0 1000H1900M0 1050H1900M0 1100H1900M0 1150H1900M0 1200H1900M0 1250H1900" stroke="rgba(120,200,230,0.16)" stroke-width="1" fill="none"/><rect x="153" y="153" width="44" height="594" fill="#2a1d14" stroke="#7a5a3f" stroke-width="2"/><path d="M153 177.8h44M153 202.5h44M153 227.3h44M153 252h44M153 276.8h44M153 301.5h44M153 326.3h44M153 351h44M153 375.8h44M153 400.5h44M153 425.3h44M153 450h44M153 474.8h44M153 499.5h44M153 524.3h44M153 549h44M153 573.8h44M153 598.5h44M153 623.3h44M153 648h44M153 672.8h44M153 697.5h44M153 722.3h44" stroke="#7a5a3f" stroke-width="1.5"/><rect x="353" y="153" width="44" height="594" fill="#2a1d14" stroke="#7a5a3f" stroke-width="2"/><path d="M353 177.8h44M353 202.5h44M353 227.3h44M353 252h44M353 276.8h44M353 301.5h44M353 326.3h44M353 351h44M353 375.8h44M353 400.5h44M353 425.3h44M353 450h44M353 474.8h44M353 499.5h44M353 524.3h44M353 549h44M353 573.8h44M353 598.5h44M353 623.3h44M353 648h44M353 672.8h44M353 697.5h44M353 722.3h44" stroke="#7a5a3f" stroke-width="1.5"/><rect x="553" y="153" width="44" height="594" fill="#2a1d14" stroke="#7a5a3f" stroke-width="2"/><path d="M553 177.8h44M553 202.5h44M553 227.3h44M553 252h44M553 276.8h44M553 301.5h44M553 326.3h44M553 351h44M553 375.8h44M553 400.5h44M553 425.3h44M553 450h44M553 474.8h44M553 499.5h44M553 524.3h44M553 549h44M553 573.8h44M553 598.5h44M553 623.3h44M553 648h44M553 672.8h44M553 697.5h44M553 722.3h44" stroke="#7a5a3f" stroke-width="1.5"/><rect x="753" y="153" width="44" height="594" fill="#2a1d14" stroke="#7a5a3f" stroke-width="2"/><path d="M753 177.8h44M753 202.5h44M753 227.3h44M753 252h44M753 276.8h44M753 301.5h44M753 326.3h44M753 351h44M753 375.8h44M753 400.5h44M753 425.3h44M753 450h44M753 474.8h44M753 499.5h44M753 524.3h44M753 549h44M753 573.8h44M753 598.5h44M753 623.3h44M753 648h44M753 672.8h44M753 697.5h44M753 722.3h44" stroke="#7a5a3f" stroke-width="1.5"/><rect x="953" y="153" width="44" height="594" fill="#2a1d14" stroke="#7a5a3f" stroke-width="2"/><path d="M953 177.8h44M953 202.5h44M953 227.3h44M953 252h44M953 276.8h44M953 301.5h44M953 326.3h44M953 351h44M953 375.8h44M953 400.5h44M953 425.3h44M953 450h44M953 474.8h44M953 499.5h44M953 524.3h44M953 549h44M953 573.8h44M953 598.5h44M953 623.3h44M953 648h44M953 672.8h44M953 697.5h44M953 722.3h44" stroke="#7a5a3f" stroke-width="1.5"/><rect x="1153" y="153" width="44" height="594" fill="#2a1d14" stroke="#7a5a3f" stroke-width="2"/><path d="M1153 177.8h44M1153 202.5h44M1153 227.3h44M1153 252h44M1153 276.8h44M1153 301.5h44M1153 326.3h44M1153 351h44M1153 375.8h44M1153 400.5h44M1153 425.3h44M1153 450h44M1153 474.8h44M1153 499.5h44M1153 524.3h44M1153 549h44M1153 573.8h44M1153 598.5h44M1153 623.3h44M1153 648h44M1153 672.8h44M1153 697.5h44M1153 722.3h44" stroke="#7a5a3f" stroke-width="1.5"/><rect x="104" y="1004" width="42" height="42" fill="#1b2536" stroke="#6f86a3" stroke-width="2"/><path d="M104 1004L146 1046M146 1004L104 1046" stroke="#6f86a3" stroke-width="2"/><rect x="154" y="1004" width="42" height="42" fill="#1b2536" stroke="#6f86a3" stroke-width="2"/><path d="M154 1004L196 1046M196 1004L154 1046" stroke="#6f86a3" stroke-width="2"/><rect x="104" y="1054" width="42" height="42" fill="#1b2536" stroke="#6f86a3" stroke-width="2"/><path d="M104 1054L146 1096M146 1054L104 1096" stroke="#6f86a3" stroke-width="2"/><rect x="454" y="1054" width="92" height="92" fill="#1b2536" stroke="#6f86a3" stroke-width="2"/><path d="M454 1054L546 1146M546 1054L454 1146" stroke="#6f86a3" stroke-width="2"/><rect x="204" y="1104" width="242" height="142" rx="37.5" fill="#1b2536" stroke="#6f86a3" stroke-width="2.5"/><rect x="355" y="1110" width="35" height="130" fill="#16384a" stroke="none"/><rect x="1403" y="103" width="194" height="144" fill="#1b2536" stroke="#22d3ee" stroke-width="3"/><rect x="1410" y="110" width="180" height="130" fill="none" stroke="#6f86a3" stroke-width="1.5"/><path d="M1435.3 103v144M1467.7 103v144M1500 103v144M1532.3 103v144M1564.7 103v144" stroke="#6f86a3" stroke-width="1.5"/><rect x="1603" y="103" width="194" height="144" fill="#1b2536" stroke="#22d3ee" stroke-width="3"/><rect x="1610" y="110" width="180" height="130" fill="none" stroke="#6f86a3" stroke-width="1.5"/><path d="M1635.3 103v144M1667.7 103v144M1700 103v144M1732.3 103v144M1764.7 103v144" stroke="#6f86a3" stroke-width="1.5"/><rect x="1403" y="303" width="194" height="144" fill="#1b2536" stroke="#22d3ee" stroke-width="3"/><rect x="1410" y="310" width="180" height="130" fill="none" stroke="#6f86a3" stroke-width="1.5"/><path d="M1435.3 303v144M1467.7 303v144M1500 303v144M1532.3 303v144M1564.7 303v144" stroke="#6f86a3" stroke-width="1.5"/><rect x="1603" y="303" width="194" height="144" fill="#1b2536" stroke="#22d3ee" stroke-width="3"/><rect x="1610" y="310" width="180" height="130" fill="none" stroke="#6f86a3" stroke-width="1.5"/><path d="M1635.3 303v144M1667.7 303v144M1700 303v144M1732.3 303v144M1764.7 303v144" stroke="#6f86a3" stroke-width="1.5"/><rect x="1405" y="605" width="190" height="40" fill="#2a1d14" stroke="#7a5a3f" stroke-width="2"/><rect x="1654" y="608" width="142" height="34" fill="#1b2536" stroke="#6f86a3" stroke-width="2"/><path d="M1659 625H1791" stroke="#22d3ee" stroke-width="3" filter="url(#mrepowarehouse-glow)"/><rect x="1403" y="803" width="394" height="44" fill="#2a1d14" stroke="#7a5a3f" stroke-width="2"/><path d="M1427.6 803v44M1452.3 803v44M1476.9 803v44M1501.5 803v44M1526.1 803v44M1550.8 803v44M1575.4 803v44M1600 803v44M1624.6 803v44M1649.3 803v44M1673.9 803v44M1698.5 803v44M1723.1 803v44M1747.8 803v44M1772.4 803v44" stroke="#7a5a3f" stroke-width="1.5"/><rect x="853" y="1003" width="144" height="144" fill="#1b2536" stroke="#6f86a3" stroke-width="2"/><rect x="860" y="1010" width="52.5" height="130" fill="none" stroke="#6f86a3" stroke-width="2"/><circle cx="958" cy="1075" r="27" fill="none" stroke="#6f86a3" stroke-width="2"/><text x="925" y="1079" text-anchor="middle" font-size="12" fill="#9fb0c6" font-family="Barlow, Arial, sans-serif">drone</text><rect x="1103" y="1003" width="144" height="144" fill="#1b2536" stroke="#6f86a3" stroke-width="2"/><rect x="1110" y="1010" width="52.5" height="130" fill="none" stroke="#6f86a3" stroke-width="2"/><circle cx="1208" cy="1075" r="27" fill="none" stroke="#6f86a3" stroke-width="2"/><text x="1175" y="1079" text-anchor="middle" font-size="12" fill="#9fb0c6" font-family="Barlow, Arial, sans-serif">drone</text><rect x="1504" y="958" width="242" height="34" fill="#1b2536" stroke="#6f86a3" stroke-width="2"/><path d="M1509 975H1741" stroke="#22d3ee" stroke-width="3" filter="url(#mrepowarehouse-glow)"/><polygon points="50,900 750,900 750,1250 50,1250" fill="none" stroke="#a8e6f5" stroke-width="7" stroke-linejoin="round" stroke-linecap="round" filter="url(#mrepowarehouse-glow)"/><polygon points="50,50 1350,50 1350,900 50,900" fill="none" stroke="#a8e6f5" stroke-width="7" stroke-linejoin="round" stroke-linecap="round" filter="url(#mrepowarehouse-glow)"/><polygon points="1350,50 1850,50 1850,550 1350,550" fill="none" stroke="#a8e6f5" stroke-width="7" stroke-linejoin="round" stroke-linecap="round" filter="url(#mrepowarehouse-glow)"/><polygon points="1350,550 1850,550 1850,900 1350,900" fill="none" stroke="#a8e6f5" stroke-width="7" stroke-linejoin="round" stroke-linecap="round" filter="url(#mrepowarehouse-glow)"/><polygon points="750,900 1850,900 1850,1250 750,1250" fill="none" stroke="#a8e6f5" stroke-width="7" stroke-linejoin="round" stroke-linecap="round" filter="url(#mrepowarehouse-glow)"/><rect x="250" y="1243.5" width="200" height="13" fill="url(#mrepowarehouse-f-metal)"/><rect x="256" y="1245" width="188" height="10" fill="#1b2536" stroke="#22d3ee" stroke-width="2" stroke-dasharray="3 3"/><rect x="350" y="893.5" width="150" height="13" fill="url(#mrepowarehouse-f-metal)"/><rect x="1343.5" y="250" width="13" height="100" fill="url(#mrepowarehouse-f-metal)"/><rect x="1345" y="256" width="10" height="88" fill="#1b2536" stroke="#fbbf24" stroke-width="2.5"/><text x="1350" y="304" text-anchor="middle" font-size="11" font-weight="700" fill="#fbbf24" font-family="Barlow, Arial, sans-serif">L</text><rect x="1343.5" y="700" width="13" height="50" fill="url(#mrepowarehouse-f-metal)"/><rect x="1345" y="706" width="10" height="38" fill="#1b2536" stroke="#22d3ee" stroke-width="2.5"/><rect x="1000" y="893.5" width="150" height="13" fill="url(#mrepowarehouse-f-metal)"/><text x="400" y="1080" text-anchor="middle" font-size="15" letter-spacing="1.5" fill="#9fb0c6" font-family="Barlow, Arial, sans-serif" style="text-transform:uppercase">LOADING DOCK</text><text x="700" y="480" text-anchor="middle" font-size="15" letter-spacing="1.5" fill="#9fb0c6" font-family="Barlow, Arial, sans-serif" style="text-transform:uppercase">STORAGE AISLES</text><g><circle cx="400" cy="1200" r="11" fill="none" stroke="#a3e635" stroke-width="3"/><text x="400" y="1184" text-anchor="middle" font-size="12" font-weight="700" fill="#a3e635" font-family="Barlow, Arial, sans-serif">Dock</text></g></svg>
